<svg height="2334" width="720" xmlns="http://www.w3.org/2000/svg">
<rect height="2334" fill="#555" width="720"></rect>
<text fill="#7f7" font-family="Courier New" font-size="12" xml:space="preserve">
<tspan x="10" y="26"></tspan>
<tspan x="10" y="42">&gt; npmdoc-swagger-test-templates@0.0.1 test /home/travis/build/npmdoc/node-npmdoc-swagger-test-te\</tspan>
<tspan x="10" y="58">mplates</tspan>
<tspan x="10" y="74">&gt; (set -e; export PORT=$(utility2 shServerPortRandom); utility2 test test.js)</tspan>
<tspan x="10" y="90"></tspan>
<tspan x="10" y="106"></tspan>
<tspan x="10" y="122">[MODE_BUILD=npmTest] - 2017-03-25T12:42:56Z - npm-testing /home/travis/build/npmdoc/node-npmdoc-\</tspan>
<tspan x="10" y="138">swagger-test-templates</tspan>
<tspan x="10" y="154"></tspan>
<tspan x="10" y="170"></tspan>
<tspan x="10" y="186">covering $ /home/travis/.nvm/versions/node/v6.10.1/bin/node /home/travis/build/npmdoc/node-npmdo\</tspan>
<tspan x="10" y="202">c-swagger-test-templates/test.js</tspan>
<tspan x="10" y="218">merging file:///home/travis/build/npmdoc/node-npmdoc-swagger-test-templates/tmp/build/test-repor\</tspan>
<tspan x="10" y="234">t.json to test-report</tspan>
<tspan x="10" y="250">&gt; server listening on http-port 50374</tspan>
<tspan x="10" y="266">created apidoc file:///home/travis/build/npmdoc/node-npmdoc-swagger-test-templates/tmp/build/api\</tspan>
<tspan x="10" y="282">doc.html</tspan>
<tspan x="10" y="298"></tspan>
<tspan x="10" y="314"></tspan>
<tspan x="10" y="330">browserTest - created electron entry-page /home/travis/build/npmdoc/node-npmdoc-swagger-test-tem\</tspan>
<tspan x="10" y="346">plates/tmp/electron.15b057db9960.3287be00e9f5.html</tspan>
<tspan x="10" y="362"></tspan>
<tspan x="10" y="378">[node test-case 1 of 6 passed] - testCase_buildLib_default</tspan>
<tspan x="10" y="394">[node test-case 2 of 6 passed] - testCase_buildReadme_default</tspan>
<tspan x="10" y="410">[node test-case 3 of 6 passed] - testCase_buildTest_default</tspan>
<tspan x="10" y="426"></tspan>
<tspan x="10" y="442">browserTest - created electron entry-page /home/travis/build/npmdoc/node-npmdoc-swagger-test-tem\</tspan>
<tspan x="10" y="458">plates/tmp/electron.15b057db9eb0.707896797f737.html</tspan>
<tspan x="10" y="474"></tspan>
<tspan x="10" y="490">Xlib:  extension "RANDR" missing on display ":99.0".</tspan>
<tspan x="10" y="506">Xlib:  extension "RANDR" missing on display ":99.0".</tspan>
<tspan x="10" y="522">&gt; server listening on http-port 56415</tspan>
<tspan x="10" y="538"></tspan>
<tspan x="10" y="554">/home/travis/build/npmdoc/node-npmdoc-swagger-test-templates/node_modules/utility2/lib.utility2.\</tspan>
<tspan x="10" y="570">sh.html.js</tspan>
<tspan x="10" y="586"> #1 Line too long.</tspan>
<tspan x="10" y="602">    process.stdout.write('export npm_package_' + key.replace((/\W/g), '_') + '=' + JSON.stringif\</tspan>
<tspan x="10" y="618">y(value) + ';'); // Line 1445, Pos 116</tspan>
<tspan x="10" y="634"></tspan>
<tspan x="10" y="650">merging file:///home/travis/build/npmdoc/node-npmdoc-swagger-test-templates/tmp/build/test-repor\</tspan>
<tspan x="10" y="666">t.json to test-report</tspan>
<tspan x="10" y="682">Xlib:  extension "RANDR" missing on display ":99.0".</tspan>
<tspan x="10" y="698">[4855:0325/124258:WARNING:audio_manager.cc(314)] Multiple instances of AudioManager detected</tspan>
<tspan x="10" y="714">[4855:0325/124258:WARNING:audio_manager.cc(275)] Multiple instances of AudioManager detected</tspan>
<tspan x="10" y="730"></tspan>
<tspan x="10" y="746">/home/travis/build/npmdoc/node-npmdoc-swagger-test-templates/node_modules/utility2/lib.utility2.\</tspan>
<tspan x="10" y="762">sh.html.js</tspan>
<tspan x="10" y="778"> #1 Line too long.</tspan>
<tspan x="10" y="794">    process.stdout.write('export npm_package_' + key.replace((/\W/g), '_') + '=' + JSON.stringif\</tspan>
<tspan x="10" y="810">y(value) + ';'); // Line 1445, Pos 116</tspan>
<tspan x="10" y="826"></tspan>
<tspan x="10" y="842">[4880:0325/124258:ERROR:sandbox_linux.cc(343)] InitializeSandbox() called with multiple threads \</tspan>
<tspan x="10" y="858">in process gpu-process. </tspan>
<tspan x="10" y="874">merging file:///home/travis/build/npmdoc/node-npmdoc-swagger-test-templates/tmp/build/test-repor\</tspan>
<tspan x="10" y="890">t.json to test-report</tspan>
<tspan x="10" y="906">[4855:0325/124258:ERROR:browser_gpu_channel_host_factory.cc(131)] Failed to create channel.</tspan>
<tspan x="10" y="922">Xlib:  extension "RANDR" missing on display ":99.0".</tspan>
<tspan x="10" y="938">[4859:0325/124258:WARNING:audio_manager.cc(314)] Multiple instances of AudioManager detected</tspan>
<tspan x="10" y="954">[4859:0325/124258:WARNING:audio_manager.cc(275)] Multiple instances of AudioManager detected</tspan>
<tspan x="10" y="970">[4911:0325/124258:ERROR:sandbox_linux.cc(343)] InitializeSandbox() called with multiple threads \</tspan>
<tspan x="10" y="986">in process gpu-process. </tspan>
<tspan x="10" y="1002">[4859:0325/124258:ERROR:browser_gpu_channel_host_factory.cc(131)] Failed to create channel.</tspan>
<tspan x="10" y="1018"></tspan>
<tspan x="10" y="1034">browserTest - opened url file:///home/travis/build/npmdoc/node-npmdoc-swagger-test-templates/tmp\</tspan>
<tspan x="10" y="1050">/build/apidoc.html</tspan>
<tspan x="10" y="1066"></tspan>
<tspan x="10" y="1082"></tspan>
<tspan x="10" y="1098">browserTest - opened url http://127.0.0.1:50374?modeTest=1</tspan>
<tspan x="10" y="1114"></tspan>
<tspan x="10" y="1130">[4859:0325/124300:INFO:CONSOLE(203)] "----------|-----------|-----------|-----------|-----------\</tspan>
<tspan x="10" y="1146">|</tspan>
<tspan x="10" y="1162">File      |   % Stmts |% Branches |   % Funcs |   % Lines |</tspan>
<tspan x="10" y="1178">----------|-----------|-----------|-----------|-----------|</tspan>
<tspan x="10" y="1194">----------|-----------|-----------|-----------|-----------|</tspan>
<tspan x="10" y="1210">All files |       100 |       100 |       100 |       100 |</tspan>
<tspan x="10" y="1226">----------|-----------|-----------|-----------|-----------|</tspan>
<tspan x="10" y="1242">", source: file:///home/travis/build/npmdoc/node-npmdoc-swagger-test-templates/tmp/electron.15b0\</tspan>
<tspan x="10" y="1258">57db9eb0.707896797f737.html (203)</tspan>
<tspan x="10" y="1274">[4859:0325/124300:INFO:CONSOLE(203)] "created coverage file:///tmp/build/coverage.html/index.htm\</tspan>
<tspan x="10" y="1290">l", source: file:///home/travis/build/npmdoc/node-npmdoc-swagger-test-templates/tmp/electron.15b\</tspan>
<tspan x="10" y="1306">057db9eb0.707896797f737.html (203)</tspan>
<tspan x="10" y="1322">[node test-case 4 of 6 passed] - testCase_buildApp_default</tspan>
<tspan x="10" y="1338"></tspan>
<tspan x="10" y="1354">browserTest - created screen-capture file:///home/travis/build/npmdoc/node-npmdoc-swagger-test-t\</tspan>
<tspan x="10" y="1370">emplates/tmp/build/screen-capture.npmTest.browser._2Fhome_2Ftravis_2Fbuild_2Fnpmdoc_2Fnode-npmdo\</tspan>
<tspan x="10" y="1386">c-swagger-test-templates_2Ftmp_2Fbuild_2Fapidoc.html.png</tspan>
<tspan x="10" y="1402"></tspan>
<tspan x="10" y="1418"></tspan>
<tspan x="10" y="1434">browserTest - exit-code 0 - file:///home/travis/build/npmdoc/node-npmdoc-swagger-test-templates/\</tspan>
<tspan x="10" y="1450">tmp/build/apidoc.html</tspan>
<tspan x="10" y="1466"></tspan>
<tspan x="10" y="1482">[node test-case 5 of 6 passed] - testCase_buildApidoc_default</tspan>
<tspan x="10" y="1498"></tspan>
<tspan x="10" y="1514">browserTest - created screen-capture file:///home/travis/build/npmdoc/node-npmdoc-swagger-test-t\</tspan>
<tspan x="10" y="1530">emplates/tmp/build/screen-capture.npmTest.browser..png</tspan>
<tspan x="10" y="1546"></tspan>
<tspan x="10" y="1562"></tspan>
<tspan x="10" y="1578">browserTest - exit-code 0 - http://127.0.0.1:50374?modeTest=1</tspan>
<tspan x="10" y="1594"></tspan>
<tspan x="10" y="1610"></tspan>
<tspan x="10" y="1626">browserTest - merged coverage from /home/travis/build/npmdoc/node-npmdoc-swagger-test-templates/\</tspan>
<tspan x="10" y="1642">tmp/coverage.npmTest.browser.%2F.json</tspan>
<tspan x="10" y="1658"></tspan>
<tspan x="10" y="1674"></tspan>
<tspan x="10" y="1690">browserTest - merging test-report from /home/travis/build/npmdoc/node-npmdoc-swagger-test-templa\</tspan>
<tspan x="10" y="1706">tes/tmp/test-report.npmTest.browser.%2F.json</tspan>
<tspan x="10" y="1722"></tspan>
<tspan x="10" y="1738">[node test-case 6 of 6 passed] - testCase_webpage_default</tspan>
<tspan x="10" y="1754">-------------------------------------------|-----------|-----------|-----------|-----------|</tspan>
<tspan x="10" y="1770">File                                       |   % Stmts |% Branches |   % Funcs |   % Lines |</tspan>
<tspan x="10" y="1786">-------------------------------------------|-----------|-----------|-----------|-----------|</tspan>
<tspan x="10" y="1802">   node-npmdoc-swagger-test-templates/     |       100 |       100 |       100 |       100 |</tspan>
<tspan x="10" y="1818">      example.js                           |       100 |       100 |       100 |       100 |</tspan>
<tspan x="10" y="1834">      lib.npmdoc_swagger_test_templates.js |       100 |       100 |       100 |       100 |</tspan>
<tspan x="10" y="1850">      test.js                              |       100 |       100 |       100 |       100 |</tspan>
<tspan x="10" y="1866">-------------------------------------------|-----------|-----------|-----------|-----------|</tspan>
<tspan x="10" y="1882">All files                                  |       100 |       100 |       100 |       100 |</tspan>
<tspan x="10" y="1898">-------------------------------------------|-----------|-----------|-----------|-----------|</tspan>
<tspan x="10" y="1914"></tspan>
<tspan x="10" y="1930">created coverage file:///home/travis/build/npmdoc/node-npmdoc-swagger-test-templates/tmp/build/c\</tspan>
<tspan x="10" y="1946">overage.html/index.html</tspan>
<tspan x="10" y="1962"></tspan>
<tspan x="10" y="1978">/home/travis/build/npmdoc/node-npmdoc-swagger-test-templates/node_modules/utility2/lib.utility2.\</tspan>
<tspan x="10" y="1994">sh.html.js</tspan>
<tspan x="10" y="2010"> #1 Line too long.</tspan>
<tspan x="10" y="2026">    process.stdout.write('export npm_package_' + key.replace((/\W/g), '_') + '=' + JSON.stringif\</tspan>
<tspan x="10" y="2042">y(value) + ';'); // Line 1445, Pos 116</tspan>
<tspan x="10" y="2058"></tspan>
<tspan x="10" y="2074">merging file:///home/travis/build/npmdoc/node-npmdoc-swagger-test-templates/tmp/build/test-repor\</tspan>
<tspan x="10" y="2090">t.json to test-report</tspan>
<tspan x="10" y="2106"></tspan>
<tspan x="10" y="2122">-------------------------------------------------------</tspan>
<tspan x="10" y="2138">| test-report - buildNpmdoc - node - linux v6.10.1 - 2017-03-25T12:42:45.301Z</tspan>
<tspan x="10" y="2154">|   17379 ms            0 failed        6 passed      |</tspan>
<tspan x="10" y="2170">-------------------------------------------------------</tspan>
<tspan x="10" y="2186"></tspan>
<tspan x="10" y="2202">created test-report file:///home/travis/build/npmdoc/node-npmdoc-swagger-test-templates/tmp/buil\</tspan>
<tspan x="10" y="2218">d/test-report.html</tspan>
<tspan x="10" y="2234"></tspan>
<tspan x="10" y="2250"></tspan>
<tspan x="10" y="2266">npmTest - 0 failed tests</tspan>
<tspan x="10" y="2282"></tspan>
<tspan x="10" y="2298"></tspan>
<tspan x="10" y="2314">[MODE_BUILD=npmTest] - 2017-03-25T12:43:06Z - EXIT_CODE - 0</tspan>
</text>
</svg>
